PathFileType  4	(X/Y/Z) C:\Users\antoi\Documents\MyRepositories\mobilecap\ResultsAnalysis
DataRate	CameraRate	NumFrames	NumMarkers	Units	OrigDataRate	OrigDataStartFrame	OrigNumFrames
100.0	100.0	4	51	mm	100.0	17	132
Frame#	Time	r_knee			r_shank_antsup			r_ankle			r_calc			r_5meta			r_toe			L_knee			L_shank_antsup			L_ankle			L_calc			L_5meta			L_toe			r_sh2			r_sh3			r_sh4			L_sh2			L_sh3			r_thigh1			r_thigh2			r_thigh3			r_thigh4			r_thigh5			L_thigh1			L_thigh2			L_thigh3			L_thigh4			r.ASIS			r.PSIS			L.ASIS			L.PSIS			C7			R_Shoulder			L_Shoulder			R_Sternum			L_Sternum			R_humerus			R_elbow_med			R_elbow_lat			R_forearm			R_wrist_radius			R_wrist_ulna			L_humerus			L_elbow_med			L_elbow_lat			L_forearm			L_wrist_radius			L_wrist_ulna			R_HJC			L_HJC			R_HJC_reg			L_HJC_reg			
		X1	Y1	Z1	X2	Y2	Z2	X3	Y3	Z3	X4	Y4	Z4	X5	Y5	Z5	X6	Y6	Z6	X7	Y7	Z7	X8	Y8	Z8	X9	Y9	Z9	X10	Y10	Z10	X11	Y11	Z11	X12	Y12	Z12	X13	Y13	Z13	X14	Y14	Z14	X15	Y15	Z15	X16	Y16	Z16	X17	Y17	Z17	X18	Y18	Z18	X19	Y19	Z19	X20	Y20	Z20	X21	Y21	Z21	X22	Y22	Z22	X23	Y23	Z23	X24	Y24	Z24	X25	Y25	Z25	X26	Y26	Z26	X27	Y27	Z27	X28	Y28	Z28	X29	Y29	Z29	X30	Y30	Z30	X31	Y31	Z31	X32	Y32	Z32	X33	Y33	Z33	X34	Y34	Z34	X35	Y35	Z35	X36	Y36	Z36	X37	Y37	Z37	X38	Y38	Z38	X39	Y39	Z39	X40	Y40	Z40	X41	Y41	Z41	X42	Y42	Z42	X43	Y43	Z43	X44	Y44	Z44	X45	Y45	Z45	X46	Y46	Z46	X47	Y47	Z47	X48	Y48	Z48	X49	Y49	Z49	X50	Y50	Z50	X51	Y51	Z51	

17	0.16000000	127.30107	487.18475	-78.44550	174.49916	450.08194	-95.25691	157.50742	87.85088	-119.10559	102.27851	56.86527	-170.93046	290.41290	38.35205	-88.48551	328.22764	70.16235	-142.31836	-191.09395	446.57768	-358.18276	-226.49638	362.97569	-372.04788	-494.08585	185.69548	-315.94883	-562.21331	204.89445	-261.43905	-459.69561	53.76838	-332.66894	-411.73855	44.52242	-283.14338	191.89117	338.12619	-111.41394	116.57973	431.93860	-47.55790	135.52505	317.87386	-50.71580	-279.30552	435.89042	-374.61338	-371.49294	355.92899	-366.80206	76.70909	785.65324	-134.51155	128.45696	690.08800	-133.19573	135.70729	667.06684	-69.73621	39.62843	765.27837	-30.22443	92.28037	664.70049	-33.15750	-81.88131	752.30079	-378.27554	-108.20270	612.64975	-384.42800	-192.59769	770.85086	-362.24168	-214.41731	636.87888	-343.66705	29.53929	920.41025	-99.86068	-177.21503	949.24437	-135.78757	-14.21161	892.43522	-328.52593	-195.42656	945.43487	-232.01278	-137.62081	1415.03037	-210.47686	-70.95798	1380.74895	-48.37836	-80.30246	1365.70922	-371.35681	-21.94618	1318.94807	-195.71622	-23.87569	1315.45657	-232.32183	-131.26110	1147.44963	33.86662	-208.35397	1075.70076	-6.20511	-184.49617	1070.44068	51.13624	-167.45810	930.21925	79.06203	-160.04697	823.70590	70.43516	-201.30499	833.65128	98.86095	-51.08405	1140.10727	-452.35368	-72.55608	1022.62089	-411.23298	-52.19743	1033.41431	-468.75809	79.56390	967.67249	-466.38849	170.64765	918.66195	-430.02635	152.19973	886.55895	-453.22674	-51.61539	836.96934	-110.37693	-99.96837	827.11182	-294.51526	-45.10720	838.78837	-115.27772	-73.86989	832.78585	-267.22746	
18	0.17000000	140.12289	488.45442	-78.10933	186.61936	449.98303	-95.55250	159.26476	87.85000	-119.32881	102.64843	57.32802	-170.78733	291.09649	37.20128	-88.54982	329.22578	67.75363	-142.84786	-165.00100	444.76336	-358.94365	-202.14425	362.58133	-372.15020	-475.18329	196.40200	-316.75671	-540.57811	221.50577	-262.44864	-452.62561	60.87887	-333.10956	-406.20682	47.29080	-283.50466	200.85868	337.64992	-111.76995	129.14682	433.48588	-46.81306	145.02624	319.02286	-50.00454	-252.19111	436.99346	-375.40248	-346.86462	360.25008	-366.96309	90.23103	787.49816	-132.93062	142.55896	691.94877	-132.03990	149.89514	668.70664	-68.68631	54.40863	767.27653	-28.64518	106.29318	666.39017	-32.05533	-64.30945	752.50656	-376.27130	-87.19450	612.28657	-383.79745	-175.40889	768.14210	-359.60269	-193.68335	633.57466	-342.41043	44.02101	923.32658	-97.79919	-162.80778	951.37417	-135.18583	1.17607	893.29357	-326.02453	-180.74718	946.45971	-231.58506	-122.45532	1416.70974	-209.23637	-56.34153	1382.34052	-46.92927	-64.67760	1367.16237	-370.03762	-6.63223	1320.66581	-194.01788	-8.50400	1317.16961	-230.70630	-114.81586	1148.31860	34.70542	-191.12540	1075.94081	-5.77618	-167.51833	1070.83045	51.67222	-149.09909	930.72983	79.43655	-140.66562	824.30618	70.65258	-181.99642	833.78222	98.95906	-39.14447	1140.62020	-450.75704	-62.09256	1023.75270	-408.83007	-41.99421	1034.18435	-466.49567	88.13453	965.03559	-465.03774	178.09072	913.76791	-429.18371	158.76878	882.13148	-452.22531	-37.09001	839.64193	-107.93349	-84.42665	827.91798	-292.23950	-30.37264	841.77979	-112.52342	-58.61442	834.05197	-264.27294	
19	0.18000000	151.49636	489.24394	-77.66472	197.47953	449.55446	-95.73831	160.63530	87.82538	-119.66688	102.81758	57.58091	-170.70392	291.47380	36.62355	-88.54762	329.78387	66.08375	-143.28983	-137.89890	443.35107	-359.77931	-176.62924	362.49917	-371.98410	-454.43951	207.30447	-317.23755	-516.57373	237.72593	-262.96163	-443.47195	69.29538	-333.61347	-398.85067	51.21257	-284.10423	208.75645	336.92912	-112.04206	140.41888	434.52677	-46.06151	153.37845	319.75412	-49.30859	-223.96315	438.10814	-376.21050	-320.92612	364.50620	-367.00570	103.56153	788.99397	-131.09766	156.10913	693.19093	-130.57788	163.03205	669.60446	-67.29743	68.39579	768.89269	-26.99000	119.11459	667.49209	-30.79530	-46.89604	753.15001	-374.41866	-65.96041	612.37049	-383.16106	-158.26042	765.53983	-356.97501	-172.69983	630.50035	-341.23179	58.17949	926.25568	-95.78886	-148.63736	953.64798	-134.45552	16.11307	894.54666	-323.71555	-166.43124	947.80118	-230.99627	-107.50218	1418.68806	-208.07459	-41.70402	1384.21640	-45.64996	-49.27826	1368.93834	-368.74060	8.52412	1322.58502	-192.47933	6.67286	1319.06942	-229.27551	-98.24775	1149.53073	35.50479	-173.73588	1076.45273	-5.31494	-150.31709	1071.51340	52.22793	-130.27735	931.58279	79.79615	-120.57799	825.26920	70.82457	-161.97837	834.19590	99.03954	-27.29151	1141.59952	-449.16539	-51.72257	1025.39763	-406.46507	-31.84377	1035.51003	-464.21905	96.30756	962.51428	-463.70117	184.89900	908.65165	-428.36070	164.56322	877.59460	-451.29465	-22.88083	842.36942	-105.66655	-69.35158	829.11313	-290.10609	-15.92323	844.80254	-109.91107	-43.86149	835.62411	-261.49483	
20	0.19000000	161.43379	489.56859	-77.14782	207.04723	448.82850	-95.80794	161.70891	87.78353	-120.09424	102.87793	57.69478	-170.68170	291.63319	36.40405	-88.53944	330.05948	64.94725	-143.66272	-110.08515	442.56112	-360.51830	-150.17323	362.88014	-371.56502	-432.15790	218.13859	-317.32035	-490.77155	252.92770	-262.72924	-431.77869	78.73086	-334.23972	-388.87372	56.30359	-285.14181	215.62889	335.99882	-112.25031	150.29532	435.05327	-45.36836	160.61094	320.04912	-48.71867	-194.94634	439.42312	-376.83121	-294.01185	368.82315	-366.88063	116.77029	790.10366	-129.12754	168.94383	693.73457	-128.92596	175.10514	669.74830	-65.69138	81.61737	770.12615	-25.30891	130.80609	668.02933	-29.43270	-29.67232	754.27957	-372.70129	-44.64835	612.98159	-382.46319	-141.18415	763.21488	-354.40600	-151.55113	627.84563	-340.03370	72.04600	929.07706	-93.92576	-134.67711	956.06734	-133.54794	30.57538	896.19548	-321.70596	-152.45064	949.43939	-230.16923	-92.77710	1420.93104	-206.98004	-27.02009	1386.32350	-44.53639	-34.22438	1371.00335	-367.49673	23.46823	1324.66650	-191.13887	21.61902	1321.13535	-228.06213	-81.56755	1151.03954	36.27271	-156.25248	1077.22061	-4.76838	-132.92014	1072.45899	52.83942	-111.02648	932.74841	80.14622	-99.82043	826.57495	70.94489	-141.29618	834.87605	99.10487	-15.49266	1143.01347	-447.59376	-41.39290	1027.49670	-404.16308	-21.66746	1037.30161	-461.95329	104.13983	960.12363	-462.39267	191.11077	903.36291	-427.58386	169.64033	873.00894	-450.45883	-8.95063	845.06523	-103.65050	-54.79953	830.70473	-288.17725	-1.79255	847.86099	-107.51302	-29.65064	837.46760	-258.96896	
